<?xml version="1.0" encoding="UTF-8"?>
<svg width="139px" height="33px" viewBox="0 0 139 33" version="1.1" xmlns="http://www.w3.org/2000/svg" xmlns:xlink="http://www.w3.org/1999/xlink">
    <!-- Generator: Sketch 52.6 (67491) - http://www.bohemiancoding.com/sketch -->
    <title>Group 34 Copy</title>
    <desc>Created with Sketch.</desc>
    <g id="Page-1" stroke="none" stroke-width="1" fill="none" fill-rule="evenodd">
        <g id="Artboard-Copy" transform="translate(-1060.000000, -3327.000000)">
            <g id="Group-34-Copy" transform="translate(1060.000000, 3322.000000)">
                <g id="Group-29" transform="translate(0.000000, 5.000000)" stroke="#4A4A4A" stroke-width="2">
                    <g id="Group-30">
                        <path d="M33,15.6346728 L33,6 C33,3.23857625 30.7614237,1 28,1 L6,1 C3.23857625,1 1,3.23857625 1,6 L1,26 C1,28.7614237 3.23857625,31 6,31 L18.5385156,31 L33,15.6346728 Z" id="Combined-Shape" fill="#FFFFFF"></path>
                        <path d="M31.226765,14 L23,14 C19.6862915,14 17,16.6862915 17,20 L17,29.4291981 C17,29.9814829 17.4477153,30.4291981 18,30.4291981 C18.2803064,30.4291981 18.5477442,30.3115518 18.7371541,30.1049228 L31.9639191,15.6757246 C32.3371115,15.2686056 32.3096086,14.6360383 31.9024896,14.2628459 C31.7180598,14.0937852 31.4769566,14 31.226765,14 Z" id="Triangle-Copy-2" fill="#DED7E0" fill-rule="nonzero"></path>
                    </g>
                </g>
                <path d="M46.647948,30.4707055 C46.647948,31.3138039 46.7447902,32.1341156 46.9384751,32.9316407 C47.13216,33.7291658 47.422687,34.1279286 47.8100563,34.1279286 C48.5392221,34.1279286 49.2626916,32.9658203 49.9804644,30.6416038 C50.6982371,28.3173873 51.39892,23.7942798 52.0825131,17.0722808 C48.4594697,22.5410256 46.647948,27.0071673 46.647948,30.4707055 Z M56.0473531,24.6259845 C56.0473531,24.7854898 56.1726787,24.8652421 56.4233293,24.8652421 C56.9246311,24.8652421 57.5398649,24.7285235 58.2690307,24.4550863 C58.9981965,24.181649 59.5108913,23.9196048 59.8071152,23.6689542 L58.8842645,23.6005949 C58.0639528,23.6461676 57.3860564,23.7714932 56.850575,23.9765711 C56.3150936,24.181649 56.0473531,24.39812 56.0473531,24.6259845 Z M53.1762621,7.74123503 C53.1990487,9.7008684 53.2104418,11.6718953 53.2104418,13.6543153 C54.5548413,12.0136919 56.2125546,10.4926972 58.1835815,9.09133139 C60.1546085,7.68996554 62.4617352,6.98928262 65.1049617,6.98928262 C66.5860799,6.98928262 67.7083122,7.45640474 68.4716577,8.39064847 C69.2350031,9.3248922 69.6166761,10.4072481 69.6166761,11.6377157 C69.6166761,15.7164877 67.155741,19.6015753 62.2338706,23.292978 C63.0541824,23.7487066 63.7833482,24.500659 64.4213686,25.5488352 C65.059389,26.5970115 65.3783989,27.9755907 65.3783989,29.6845735 C65.3783989,31.4163428 65.0422991,32.897461 64.3700991,34.1279286 C63.697899,35.3583962 62.7522623,36.2698538 61.5331877,36.862301 C60.3141132,37.4547482 58.9526238,37.750972 57.448719,37.750972 C56.0815328,37.750972 54.8966379,37.4661417 53.8940349,36.8964807 C52.8914318,36.3268196 52.39013,35.5179014 52.39013,34.4697252 C52.39013,34.1279286 52.492669,33.9342437 52.6977469,33.888671 C53.1762621,33.9570303 53.4269127,34.1507152 53.4496993,34.4697252 C53.4496993,35.0621723 53.8142825,35.5691709 54.5434483,35.9907198 C55.2726141,36.4122687 56.2638241,36.6230434 57.5170783,36.6230434 C58.9298372,36.6230434 60.1432149,36.3439094 61.1572115,35.7856419 C62.1712081,35.2273744 62.9402504,34.3899728 63.4643382,33.2734372 C63.9884261,32.1569017 64.2504703,30.9150411 64.2504703,29.5478549 C64.2504703,28.1123093 64.0055159,26.9331113 63.5156077,26.0102606 C63.0256995,25.0874099 62.2794433,24.39812 61.2768403,23.9423915 C60.6388199,24.4892659 59.8469916,24.9620843 58.9013543,25.3608471 C57.955717,25.7596099 57.1069224,25.9589911 56.35497,25.9589911 C55.4435124,25.9589911 54.9877838,25.5146556 54.9877838,24.6259845 C54.9877838,23.9423915 55.3694568,23.4296966 56.1328022,23.0879001 C56.8961477,22.7461035 57.8133021,22.5752053 58.8842645,22.5752053 C59.9780134,22.5752053 60.7299658,22.6663512 61.1401217,22.8486425 C66.0392054,19.0205211 68.4887475,15.2835457 68.4887475,11.6377157 C68.4887475,10.6351126 68.1868274,9.7977111 67.5829866,9.12551105 C66.9791459,8.453311 66.1531379,8.11721123 65.1049617,8.11721123 C62.5756672,8.11721123 60.4109559,8.7837145 58.6108272,10.116721 C56.8106986,11.4497276 55.0447501,13.1416205 53.3129807,15.1923998 C52.6749603,23.2132257 51.883132,28.5623416 50.9374947,31.2397478 C49.9918574,33.9171539 48.9607715,35.2558572 47.8442359,35.2558572 C47.0239242,35.2558572 46.4371733,34.7830388 46.0839837,33.8374015 C45.7307941,32.8917643 45.5541991,31.7581394 45.5541991,30.4365259 C45.5541991,26.5856179 47.7303039,21.4814563 52.0825131,15.1240405 C52.1052998,11.8655802 52.1166928,9.38185846 52.1166928,7.67287572 C52.1850521,7.39943848 52.3673434,7.25132681 52.6635673,7.2285402 C52.9597911,7.2285402 53.1306894,7.39943848 53.1762621,7.74123503 Z M72.4877889,14.9189626 C73.285314,14.9417492 73.6840768,15.3177254 73.6840768,16.0468912 C73.6385041,16.9583488 73.2397413,17.4254704 72.4877889,17.448257 C72.1004197,17.448257 71.798499,17.3400213 71.5820281,17.1235503 C71.3655571,16.9070793 71.2573214,16.6051587 71.2573214,16.2177894 C71.280108,15.9215656 71.3883432,15.6367353 71.5820281,15.3632981 C71.775713,15.0898608 72.0776331,14.9417492 72.4877889,14.9189626 Z M78.4350489,28.5566449 C78.5034082,28.4427129 78.6059472,28.3857466 78.7426658,28.3857466 C79.0844623,28.3857466 79.2895403,28.5452518 79.3578996,28.8642618 C79.3578996,28.9554077 79.335113,29.03516 79.2895403,29.1035193 C78.5603745,30.1972683 77.808422,31.1941751 77.033683,32.0942391 C76.258944,32.9943032 75.4386323,33.4443355 74.5727479,33.4443355 C72.7954058,33.4443355 71.9067348,31.6897801 71.9067348,28.1806687 C71.9067348,26.9729877 71.9750941,25.0361404 72.1118127,22.3701273 C71.6788703,23.6461676 71.2174449,24.8025796 70.7275367,25.8393623 C70.2376285,26.876145 69.6622706,27.9641977 69.0014641,29.1035193 C68.9331048,29.2174514 68.8305659,29.2744176 68.6938472,29.2744176 C68.3520507,29.2744176 68.1469728,29.1149124 68.0786134,28.7959024 C68.0786134,28.7047565 68.1014001,28.6250042 68.1469728,28.5566449 C68.4431966,28.0553431 68.8761386,27.2236383 69.4457996,26.0615301 C70.0154607,24.8994218 70.4711893,23.8740321 70.8129858,22.9853611 C71.1547824,22.0966901 71.4737923,21.4017039 71.7700162,20.9004022 C71.9523075,20.8092562 72.2143517,20.7636835 72.5561482,20.7636835 C72.8979448,20.7864702 73.0916297,20.9345818 73.1372024,21.2080191 C73.1372024,21.5042429 73.0916297,23.6689542 73.0004838,27.7021535 C73.0004838,30.801109 73.5359652,32.3505866 74.6069275,32.3505866 C75.1993747,32.3505866 75.8203053,31.9518237 76.4697187,31.1542986 C77.1191322,30.3567735 77.7742424,29.4908886 78.4350489,28.5566449 Z M80.1098618,21.4472766 C80.1098618,21.7662866 80.5314107,21.9941511 81.374509,22.1308697 C81.4200817,21.9485784 81.4428683,21.7207139 81.4428683,21.4472766 C81.4200817,21.0826935 81.1808241,20.9004022 80.7250956,20.9004022 C80.3149397,20.9004022 80.1098618,21.0826935 80.1098618,21.4472766 Z M94.4994965,28.5566449 C94.5678558,28.4427129 94.6703948,28.3857466 94.8071134,28.3857466 C95.1489099,28.3857466 95.3539879,28.5452518 95.4223472,28.8642618 C95.4223472,28.9554077 95.3995606,29.03516 95.3539879,29.1035193 C94.3285982,30.7669294 93.4513202,31.9233409 92.7221544,32.5727543 C91.9929886,33.2221678 91.2866089,33.5468745 90.6030158,33.5468745 C89.0307517,33.5468745 87.8344638,32.1569017 87.0141521,29.3769566 C86.1938404,26.5970115 85.6241793,24.8082759 85.3051693,24.0107508 C85.122878,23.5778083 84.6443628,23.3613373 83.8696238,23.3613373 L82.1264614,23.3613373 C81.7618783,24.6373776 81.2263973,25.873542 80.5200176,27.0698299 C79.8136379,28.2661178 79.4034821,28.9440141 79.2895501,29.1035193 C79.2211908,29.2174514 79.1186518,29.2744176 78.9819332,29.2744176 C78.6401366,29.2744176 78.4350587,29.1149124 78.3666994,28.7959024 C78.3666994,28.7047565 78.389486,28.6250042 78.4350587,28.5566449 C78.5262046,28.4199262 78.6515297,28.2148483 78.8110349,27.9414111 C78.9705401,27.6679738 79.3009431,27.1097063 79.8022449,26.266608 C80.3035467,25.4235097 80.7250956,24.4209066 81.0668921,23.2587984 C79.6769193,22.9853611 78.9819332,22.3701273 78.9819332,21.413097 C78.9819332,20.8662225 79.1414384,20.4617634 79.4604483,20.1997192 C79.7794583,19.937675 80.166828,19.8066532 80.6225566,19.8066532 C81.1694311,19.8066532 81.6251596,19.9718547 81.9897428,20.3022582 C82.354326,20.6326617 82.5366173,21.0143342 82.5366173,21.4472766 C82.5366173,21.6979273 82.4910446,21.9713645 82.3998987,22.2675884 L84.3139593,22.2675884 C85.2709897,22.3359477 85.9317962,22.8030698 86.2963793,23.6689542 C86.7293218,24.7627032 87.1223878,25.9988675 87.4755774,27.3774468 C87.828767,28.756026 88.2503164,29.9466177 88.7402246,30.9492207 C89.2301329,31.9518237 89.87385,32.4531255 90.6713751,32.4531255 C91.1726769,32.4531255 91.7594273,32.111329 92.4316274,31.4277359 C93.1038274,30.7441428 93.7931168,29.7871124 94.4994965,28.5566449 Z M102.60009,20.7636835 C103.853344,20.7636835 104.787588,21.1282667 105.402822,21.8574325 C105.402822,22.1308697 105.362945,22.3359477 105.283193,22.4726663 C105.203441,22.6093849 105.061025,22.6777442 104.855947,22.6777442 C104.217927,22.1536564 103.488761,21.8916122 102.668449,21.8916122 C101.392409,21.8916122 100.241694,22.1650494 99.2163042,22.7119239 C98.1909145,23.2587984 97.3478162,24.067717 96.6870097,25.1386794 C96.0262032,26.2096417 95.6957997,27.257818 95.6957997,28.2832076 C95.6957997,29.5364618 95.9977198,30.4877954 96.6015606,31.1372088 C97.2054013,31.7866223 97.951657,32.111329 98.840328,32.111329 C100.959467,32.111329 102.691236,30.2998073 104.035636,26.6767638 C104.012849,26.3349673 103.961579,26.0786199 103.881827,25.9077216 C103.802075,25.7368233 103.762198,25.6171945 103.762198,25.5488352 C103.784985,25.275398 103.864737,25.0874099 104.001456,24.9848709 C104.138174,24.882332 104.331859,24.8310625 104.58251,24.8310625 C104.764801,24.8994218 105.123688,25.782396 105.659169,27.4799857 C106.194651,29.1775754 106.684559,30.3909532 107.128894,31.120119 C107.57323,31.8492848 108.091621,32.2138679 108.684069,32.2138679 C109.18537,32.2138679 109.732245,31.9233409 110.324692,31.3422867 C110.917139,30.7612326 111.634912,29.8668648 112.47801,28.6591838 C112.54637,28.5452518 112.648909,28.4882856 112.785627,28.4882856 C113.127424,28.4882856 113.332502,28.6477908 113.400861,28.9668007 C113.400861,29.0579466 113.378074,29.137699 113.332502,29.2060583 C112.648909,30.34538 111.879866,31.3138039 111.025375,32.111329 C110.170884,32.9088541 109.379055,33.3076169 108.649889,33.3076169 C107.487781,33.3076169 106.58202,32.6012372 105.932606,31.1884783 C105.283193,29.7757194 104.878734,28.7161501 104.719229,28.0097704 C103.23811,31.4733086 101.232904,33.2050779 98.7036094,33.2050779 C97.4275691,33.2050779 96.4249655,32.783529 95.6957997,31.9404307 C94.9666339,31.0973324 94.6020508,29.9238311 94.6020508,28.4199262 C94.6020508,26.8932348 95.0065099,25.5431384 95.8154285,24.3696371 C96.6243472,23.1961358 97.5984674,22.301768 98.737789,21.6865342 C99.8771107,21.0713004 101.164545,20.7636835 102.60009,20.7636835 Z M124.885242,27.257818 C124.885242,26.3007876 124.737131,25.4690829 124.440907,24.7627032 C124.144683,24.0563235 123.717437,23.509449 123.15917,23.1220797 C122.600902,22.7347105 121.979972,22.5410256 121.296378,22.5410256 C120.339348,22.5638122 119.342441,22.9397884 118.305659,23.6689542 C117.268876,24.39812 116.226397,25.6627672 115.17822,27.4628959 C114.289549,28.9440141 113.754068,29.9466177 113.571776,30.4707055 C115.2124,31.8834644 117.080888,32.5898441 119.17724,32.5898441 C120.270989,32.5898441 121.228019,32.3733732 122.048331,31.9404307 C122.868643,31.5074882 123.546539,30.8808614 124.08202,30.0605497 C124.617502,29.240238 124.885242,28.3059942 124.885242,27.257818 Z M113.366699,31.6328138 C113.275553,31.997397 113.059082,32.2024749 112.717285,32.2480476 C112.443848,32.2024749 112.307129,31.9632173 112.307129,31.5302748 C112.307129,31.3479835 112.318522,31.0973324 112.341309,30.7783224 C112.728678,27.8844448 113.321126,20.8890091 114.118651,9.79201432 C114.118651,9.6552957 114.181313,9.56414978 114.306639,9.51857708 C114.431965,9.47300438 114.608559,9.45021777 114.836424,9.45021777 C115.018715,9.45021777 115.155434,9.58693639 115.24658,9.86037363 C114.790851,15.8987795 114.312336,21.8688255 113.811034,27.7705128 C114.517414,26.2210353 115.53141,24.8025796 116.853023,23.5151458 C118.174637,22.2277119 119.667148,21.5498156 121.330558,21.4814563 C122.264802,21.4814563 123.079417,21.7150171 123.774403,22.1821392 C124.46939,22.6492613 125.016264,23.3214609 125.415027,24.1987389 C125.81379,25.0760168 126.013171,26.0615301 126.013171,27.155279 C126.013171,28.5224652 125.694161,29.7187531 125.056141,30.7441428 C124.41812,31.7695324 123.609202,32.515788 122.629385,32.9829102 C121.649568,33.4500323 120.521639,33.6835931 119.245599,33.6835931 C116.944169,33.6835931 114.984535,33 113.366699,31.6328138 Z M138.693837,27.7021535 C138.693837,28.8642618 138.465972,29.9010444 138.010244,30.8125021 C137.554515,31.7239597 136.882315,32.4303389 135.993644,32.9316407 C135.104973,33.4329425 134.159336,33.6835931 133.156733,33.6835931 C131.994624,33.6835931 130.940752,33.4044591 129.995115,32.8461916 C129.049477,32.287924 128.348794,31.513185 127.893066,30.521975 C127.437337,29.530765 127.209473,28.4996786 127.209473,27.4287163 C127.209473,26.1982487 127.46582,25.0988029 127.978515,24.1303796 C128.49121,23.1619562 129.197589,22.3758241 130.097653,21.7719834 C130.997718,21.1681426 131.971838,20.8662225 133.020014,20.8662225 C134.159336,20.8662225 135.161939,21.1738394 136.027824,21.7890732 C136.893708,22.404307 137.554515,23.2360117 138.010244,24.284188 C138.465972,25.3323643 138.693837,26.4716859 138.693837,27.7021535 Z M128.337401,27.3603569 C128.337401,28.5224652 128.542479,29.4681025 128.952635,30.1972683 C129.362791,30.9264341 129.938148,31.501792 130.678708,31.9233409 C131.419267,32.3448898 132.256669,32.5556645 133.190912,32.5556645 C134.034011,32.5556645 134.808749,32.3448898 135.515129,31.9233409 C136.221509,31.501792 136.745596,30.903648 137.087393,30.128909 C137.429189,29.35417 137.600088,28.5224652 137.600088,27.6337942 C137.600088,26.4944725 137.400707,25.5203524 137.001944,24.7114337 C136.603181,23.902515 136.090486,23.2474053 135.463859,22.7461035 C134.837232,22.2448017 134.011224,21.9941511 132.985834,21.9941511 C132.279455,21.9941511 131.561682,22.2106221 130.832516,22.6435646 C130.10335,23.076507 129.505206,23.6974371 129.038084,24.5063558 C128.570962,25.3152744 128.337401,26.266608 128.337401,27.3603569 Z" id="Birabo" fill="#000000"></path>
            </g>
        </g>
    </g>
</svg>