<?xml version="1.0" encoding="UTF-8"?>
<svg width="176px" height="180px" viewBox="0 0 176 180" version="1.1" xmlns="http://www.w3.org/2000/svg" xmlns:xlink="http://www.w3.org/1999/xlink">
    <!-- Generator: Sketch 52.6 (67491) - http://www.bohemiancoding.com/sketch -->
    <title>mentspot</title>
    <desc>Created with Sketch.</desc>
    <defs>
        <path d="M3.42799199,19.607 C3.42799199,18.7049955 3.87898748,18.254 4.78099199,18.254 L5.92899199,18.254 C6.8309965,18.254 7.28199199,18.7049955 7.28199199,19.607 L7.28199199,21.452 C7.28199199,21.7253347 7.25465893,21.9986653 7.19999199,22.272 C7.17265852,22.3813339 7.15899199,22.5043327 7.15899199,22.641 L7.24099199,22.641 C7.48699322,22.0396637 7.84915626,21.4451696 8.32749199,20.8575 C8.80582771,20.2698304 9.36615544,19.7505023 10.008492,19.2995 C10.6508285,18.8484977 11.3478216,18.4795014 12.099492,18.1925 C12.8511624,17.9054986 13.6369879,17.762 14.456992,17.762 C17.8736757,17.762 19.9509883,19.3336509 20.688992,22.477 L20.770992,22.477 C21.0443267,21.8756637 21.4269895,21.2880029 21.918992,20.714 C22.4109944,20.1399971 22.9713222,19.6343355 23.599992,19.197 C24.2286618,18.7596645 24.9256548,18.411168 25.690992,18.1515 C26.4563291,17.891832 27.2626544,17.762 28.109992,17.762 C30.4880039,17.762 32.2236532,18.4248267 33.316992,19.7505 C34.4103308,21.0761733 34.956992,23.0646534 34.956992,25.716 L34.956992,37.647 C34.956992,38.5490045 34.5059965,39 33.603992,39 L32.332992,39 C31.4309875,39 30.979992,38.5490045 30.979992,37.647 L30.979992,26.577 C30.979992,25.8389963 30.9321591,25.1556698 30.836492,24.527 C30.7408248,23.8983302 30.56316,23.351669 30.303492,22.887 C30.043824,22.422331 29.6748277,22.0533347 29.196492,21.78 C28.7181563,21.5066653 28.0963291,21.37 27.330992,21.37 C26.3743205,21.37 25.5133291,21.5954977 24.747992,22.0465 C23.9826548,22.4975023 23.3334947,23.0988296 22.800492,23.8505 C22.2674893,24.6021704 21.8643267,25.4563286 21.590992,26.413 C21.3176573,27.3696714 21.180992,28.3399951 21.180992,29.324 L21.180992,37.647 C21.180992,38.5490045 20.743663,39 19.868992,39 L18.556992,39 C17.6823209,39 17.244992,38.5490045 17.244992,37.647 L17.244992,26.577 C17.244992,25.8936632 17.2039924,25.2376698 17.121992,24.609 C17.0399916,23.9803302 16.8759932,23.4268357 16.629992,22.9485 C16.3839908,22.4701643 16.0218277,22.0875014 15.543492,21.8005 C15.0651563,21.5134986 14.4296626,21.37 13.636992,21.37 C12.6529871,21.37 11.7714959,21.602331 10.992492,22.067 C10.2134881,22.531669 9.55749465,23.1398296 9.02449199,23.8915 C8.49148932,24.6431704 8.08832669,25.4973285 7.81499199,26.454 C7.54165729,27.4106714 7.40499199,28.3673285 7.40499199,29.324 L7.40499199,37.647 C7.40499199,38.5490045 6.9539965,39 6.05199199,39 L4.78099199,39 C3.87898748,39 3.42799199,38.5490045 3.42799199,37.647 L3.42799199,19.607 Z M39.097992,28.627 C39.097992,26.9869918 39.3644893,25.49734 39.897492,24.158 C40.4304947,22.81866 41.1548207,21.6775047 42.070492,20.7345 C42.9861632,19.7914953 44.0794856,19.0603359 45.350492,18.541 C46.6214983,18.0216641 47.9949846,17.762 49.470992,17.762 C50.8923324,17.762 52.1633197,18.0079975 53.283992,18.5 C54.4046643,18.9920025 55.3408216,19.675329 56.092492,20.55 C56.8441624,21.424671 57.4181567,22.4633273 57.814492,23.666 C58.2108273,24.8686727 58.408992,26.1943261 58.408992,27.643 C58.408992,28.0256686 58.27916,28.3536653 58.019492,28.627 C57.759824,28.9003347 57.424994,29.037 57.014992,29.037 L43.156992,29.037 C43.2116589,30.1576723 43.4439899,31.155329 43.853992,32.03 C44.263994,32.904671 44.7969887,33.6426637 45.452992,34.244 C46.1089953,34.8453363 46.8538212,35.2963318 47.687492,35.597 C48.5211628,35.8976682 49.402654,36.048 50.331992,36.048 C51.4799977,36.048 52.4776544,35.8635018 53.324992,35.4945 C54.1723296,35.1254982 54.828323,34.7633351 55.292992,34.408 C56.1129961,33.9706645 56.7279899,34.1209963 57.137992,34.859 L57.506992,35.474 C57.7256597,35.8293351 57.8008257,36.1641651 57.732492,36.4785 C57.6641583,36.7928349 57.4523271,37.0593322 57.096992,37.278 C56.7963238,37.4966678 56.413661,37.735832 55.948992,37.9955 C55.484323,38.255168 54.9581616,38.4943322 54.370492,38.713 C53.7828224,38.9316678 53.1268289,39.1161659 52.402492,39.2665 C51.678155,39.4168341 50.9059961,39.492 50.085992,39.492 C48.4459838,39.492 46.956332,39.2118361 45.616992,38.6515 C44.277652,38.0911639 43.1228302,37.3258382 42.152492,36.3555 C41.1821538,35.3851618 40.4304947,34.2371733 39.897492,32.9115 C39.3644893,31.5858267 39.097992,30.1576743 39.097992,28.627 Z M54.431992,26.413 C54.377325,24.5816575 53.8648302,23.201338 52.894492,22.272 C51.9241538,21.342662 50.7556655,20.878 49.388992,20.878 C47.8583177,20.878 46.5394975,21.3631618 45.432492,22.3335 C44.3254865,23.3038382 43.6216602,24.6636579 43.320992,26.413 L54.431992,26.413 Z M62.754992,19.607 C62.754992,18.7049955 63.2059875,18.254 64.107992,18.254 L65.255992,18.254 C66.1579965,18.254 66.608992,18.7049955 66.608992,19.607 L66.608992,21.452 C66.608992,21.7253347 66.5816589,21.9986653 66.526992,22.272 C66.4996585,22.3813339 66.485992,22.5043327 66.485992,22.641 L66.567992,22.641 C66.7593263,22.2036645 67.0668232,21.6980029 67.490492,21.124 C67.9141608,20.5499971 68.4539887,20.0170025 69.109992,19.525 C69.7659953,19.0329975 70.5313209,18.6161684 71.405992,18.2745 C72.280663,17.9328316 73.2919862,17.762 74.439992,17.762 C76.9000043,17.762 78.697153,18.4248267 79.831492,19.7505 C80.965831,21.0761733 81.532992,23.0646534 81.532992,25.716 L81.532992,37.647 C81.532992,38.5490045 81.0819965,39 80.179992,39 L78.908992,39 C78.0069875,39 77.555992,38.5490045 77.555992,37.647 L77.555992,26.618 C77.555992,25.8799963 77.5081591,25.1966698 77.412492,24.568 C77.3168248,23.9393302 77.1323267,23.392669 76.858992,22.928 C76.5856573,22.463331 76.1893279,22.0943347 75.669992,21.821 C75.1506561,21.5476653 74.4809961,21.411 73.660992,21.411 C72.6496536,21.411 71.7203296,21.6091647 70.872992,22.0055 C70.0256544,22.4018353 69.2944951,22.9416632 68.679492,23.625 C68.0644889,24.3083367 67.5861604,25.1214953 67.244492,26.0645 C66.9028236,27.0075047 66.731992,28.0119947 66.731992,29.078 L66.731992,37.647 C66.731992,38.5490045 66.2809965,39 65.378992,39 L64.107992,39 C63.2059875,39 62.754992,38.5490045 62.754992,37.647 L62.754992,19.607 Z M87.764992,21.698 L86.329992,21.698 C85.4553209,21.698 85.017992,21.2470045 85.017992,20.345 L85.017992,19.812 C85.017992,18.9099955 85.4689875,18.459 86.370992,18.459 L87.846992,18.459 L87.846992,13.908 C87.846992,13.0059955 88.2979875,12.555 89.199992,12.555 L90.388992,12.555 C91.2909965,12.555 91.741992,13.0059955 91.741992,13.908 L91.741992,18.459 L95.349992,18.459 C96.2519965,18.459 96.702992,18.9099955 96.702992,19.812 L96.702992,20.345 C96.702992,21.2470045 96.265663,21.698 95.390992,21.698 L91.741992,21.698 L91.741992,30.923 C91.741992,31.9070049 91.8786573,32.6996637 92.151992,33.301 C92.4253267,33.9023363 92.7601567,34.3669984 93.156492,34.695 C93.5528273,35.0230016 93.9764897,35.2484994 94.427492,35.3715 C94.8784942,35.4945006 95.2953234,35.5696665 95.677992,35.597 C96.2246614,35.6516669 96.600491,35.7746657 96.805492,35.966 C97.010493,36.1573343 97.112992,36.485331 97.112992,36.95 L97.112992,37.811 C97.112992,38.7130045 96.5663308,39.164 95.472992,39.164 C94.4343201,39.164 93.45033,39.0136682 92.520992,38.713 C91.591654,38.4123318 90.7784955,37.9476698 90.081492,37.319 C89.3844885,36.6903302 88.8241608,35.8976714 88.400492,34.941 C87.9768232,33.9843286 87.764992,32.8500066 87.764992,31.538 L87.764992,21.698 Z M99.982992,37.237 C99.6276569,37.0183322 99.4363255,36.7450016 99.408992,36.417 C99.3816585,36.0889984 99.4773242,35.7473351 99.695992,35.392 L100.105992,34.818 C100.379327,34.4626649 100.659491,34.2713335 100.946492,34.244 C101.233493,34.2166665 101.58199,34.3123322 101.991992,34.531 C102.456661,34.8316682 103.112654,35.1869979 103.959992,35.597 C104.80733,36.007002 105.845986,36.212 107.075992,36.212 C108.114664,36.212 108.961989,35.9728357 109.617992,35.4945 C110.273995,35.0161643 110.601992,34.339671 110.601992,33.465 C110.601992,32.7816632 110.335495,32.235002 109.802492,31.825 C109.269489,31.414998 108.606663,31.0391684 107.813992,30.6975 C107.021321,30.3558316 106.167163,30.0278349 105.251492,29.7135 C104.335821,29.3991651 103.481663,28.9891692 102.688992,28.4835 C101.896321,27.9778308 101.233495,27.3560037 100.700492,26.618 C100.167489,25.8799963 99.900992,24.9233392 99.900992,23.748 C99.900992,22.7639951 100.099157,21.8961704 100.495492,21.1445 C100.891827,20.3928296 101.431655,19.7710025 102.114992,19.279 C102.798329,18.7869975 103.597821,18.411168 104.513492,18.1515 C105.429163,17.891832 106.392654,17.762 107.403992,17.762 C108.852666,17.762 110.048487,17.9533314 110.991492,18.336 C111.934497,18.7186686 112.65199,19.0603318 113.143992,19.361 C113.526661,19.5523343 113.752158,19.8051651 113.820492,20.1195 C113.888826,20.4338349 113.81366,20.7823314 113.594992,21.165 L113.225992,21.78 C112.843323,22.4633367 112.241996,22.6136686 111.421992,22.231 C110.984656,21.9849988 110.417495,21.7253347 109.720492,21.452 C109.023489,21.1786653 108.182997,21.042 107.198992,21.042 C106.214987,21.042 105.388162,21.2606645 104.718492,21.698 C104.048822,22.1353355 103.713992,22.791329 103.713992,23.666 C103.713992,24.3493367 103.980489,24.9028312 104.513492,25.3265 C105.046495,25.7501688 105.709321,26.1259984 106.501992,26.454 C107.294663,26.7820016 108.148821,27.1099984 109.064492,27.438 C109.980163,27.7660016 110.834321,28.1691643 111.626992,28.6475 C112.419663,29.1258357 113.082489,29.7408296 113.615492,30.4925 C114.148495,31.2441704 114.414992,32.2076608 114.414992,33.383 C114.414992,34.257671 114.237327,35.0708296 113.881992,35.8225 C113.526657,36.5741704 113.020995,37.2233306 112.364992,37.77 C111.708989,38.3166694 110.923163,38.7403318 110.007492,39.041 C109.091821,39.3416682 108.073664,39.492 106.952992,39.492 C106.078321,39.492 105.278829,39.4168341 104.554492,39.2665 C103.830155,39.1161659 103.180995,38.9248345 102.606992,38.6925 C102.032989,38.4601655 101.520494,38.214168 101.069492,37.9545 C100.61849,37.694832 100.256327,37.4556678 99.982992,37.237 Z M118.842992,19.607 C118.842992,18.7049955 119.293987,18.254 120.195992,18.254 L121.138992,18.254 C122.040996,18.254 122.491992,18.6366628 122.491992,19.402 L122.491992,20.632 C122.491992,20.7960008 122.485159,20.9394994 122.471492,21.0625 C122.457825,21.1855006 122.450992,21.3016661 122.450992,21.411 C122.423659,21.5203339 122.409992,21.6296661 122.409992,21.739 L122.491992,21.739 C122.847327,21.0009963 123.352989,20.3450029 124.008992,19.771 C124.555661,19.2789975 125.273154,18.8211688 126.161492,18.3975 C127.04983,17.9738312 128.149985,17.762 129.461992,17.762 C130.855999,17.762 132.11332,18.0284973 133.233992,18.5615 C134.354664,19.0945027 135.311321,19.8393285 136.103992,20.796 C136.896663,21.7526715 137.504823,22.8938267 137.928492,24.2195 C138.352161,25.5451733 138.563992,27.0143253 138.563992,28.627 C138.563992,30.2670082 138.331661,31.75666 137.866992,33.096 C137.402323,34.43534 136.74633,35.5764953 135.898992,36.5195 C135.051654,37.4625047 134.053998,38.1936641 132.905992,38.713 C131.757986,39.2323359 130.514332,39.492 129.174992,39.492 C127.972319,39.492 126.967829,39.3006686 126.161492,38.918 C125.355155,38.5353314 124.692328,38.111669 124.172992,37.647 C123.571656,37.1276641 123.093327,36.5126702 122.737992,35.802 L122.655992,35.802 C122.655992,35.9386674 122.669659,36.1026657 122.696992,36.294 C122.724325,36.4580008 122.744825,36.6493322 122.758492,36.868 C122.772159,37.0866678 122.778992,37.3326653 122.778992,37.606 L122.778992,45.847 C122.778992,46.7490045 122.341663,47.2 121.466992,47.2 L120.195992,47.2 C119.293987,47.2 118.842992,46.7490045 118.842992,45.847 L118.842992,19.607 Z M122.696992,28.709 C122.696992,29.638338 122.826824,30.540329 123.086492,31.415 C123.34616,32.289671 123.72199,33.0686633 124.213992,33.752 C124.705994,34.4353368 125.314155,34.9888312 126.038492,35.4125 C126.762829,35.8361688 127.603321,36.048 128.559992,36.048 C129.379996,36.048 130.152155,35.8840016 130.876492,35.556 C131.600829,35.2279984 132.236323,34.7496698 132.782992,34.121 C133.329661,33.4923302 133.760157,32.7201712 134.074492,31.8045 C134.388827,30.8888288 134.545992,29.8433392 134.545992,28.668 C134.545992,27.5473277 134.402493,26.5291712 134.115492,25.6135 C133.828491,24.6978288 133.425328,23.9188365 132.905992,23.2765 C132.386656,22.6341635 131.764829,22.1353351 131.040492,21.78 C130.316155,21.4246649 129.53033,21.247 128.682992,21.247 C127.890321,21.247 127.138662,21.3904986 126.427992,21.6775 C125.717322,21.9645014 125.081828,22.4086637 124.521492,23.01 C123.961156,23.6113363 123.516994,24.3834953 123.188992,25.3265 C122.86099,26.2695047 122.696992,27.3969934 122.696992,28.709 Z M141.720992,28.586 C141.720992,27.0279922 142.014822,25.5861733 142.602492,24.2605 C143.190162,22.9348267 143.98282,21.7868382 144.980492,20.8165 C145.978164,19.8461618 147.153485,19.0945027 148.506492,18.5615 C149.859499,18.0284973 151.314984,17.762 152.872992,17.762 C154.431,17.762 155.886485,18.0284973 157.239492,18.5615 C158.592499,19.0945027 159.774654,19.8461618 160.785992,20.8165 C161.79733,21.7868382 162.596822,22.9348267 163.184492,24.2605 C163.772162,25.5861733 164.065992,27.0279922 164.065992,28.586 C164.065992,30.1713413 163.772162,31.6268267 163.184492,32.9525 C162.596822,34.2781733 161.79733,35.4261618 160.785992,36.3965 C159.774654,37.3668382 158.592499,38.1253306 157.239492,38.672 C155.886485,39.2186694 154.431,39.492 152.872992,39.492 C151.314984,39.492 149.859499,39.2186694 148.506492,38.672 C147.153485,38.1253306 145.978164,37.3668382 144.980492,36.3965 C143.98282,35.4261618 143.190162,34.2781733 142.602492,32.9525 C142.014822,31.6268267 141.720992,30.1713413 141.720992,28.586 Z M145.738992,28.586 C145.738992,29.6793388 145.930323,30.6838288 146.312992,31.5995 C146.695661,32.5151712 147.208155,33.3009967 147.850492,33.957 C148.492829,34.6130033 149.244488,35.1254982 150.105492,35.4945 C150.966496,35.8635018 151.888987,36.048 152.872992,36.048 C153.856997,36.048 154.779488,35.8635018 155.640492,35.4945 C156.501496,35.1254982 157.259989,34.6130033 157.915992,33.957 C158.571995,33.3009967 159.08449,32.5151712 159.453492,31.5995 C159.822494,30.6838288 160.006992,29.6793388 160.006992,28.586 C160.006992,27.5199947 159.822494,26.5360045 159.453492,25.634 C159.08449,24.7319955 158.571995,23.9530033 157.915992,23.297 C157.259989,22.6409967 156.501496,22.1285018 155.640492,21.7595 C154.779488,21.3904982 153.856997,21.206 152.872992,21.206 C151.888987,21.206 150.966496,21.3904982 150.105492,21.7595 C149.244488,22.1285018 148.492829,22.6409967 147.850492,23.297 C147.208155,23.9530033 146.695661,24.7319955 146.312992,25.634 C145.930323,26.5360045 145.738992,27.5199947 145.738992,28.586 Z M169.231992,21.698 L167.796992,21.698 C166.922321,21.698 166.484992,21.2470045 166.484992,20.345 L166.484992,19.812 C166.484992,18.9099955 166.935987,18.459 167.837992,18.459 L169.313992,18.459 L169.313992,13.908 C169.313992,13.0059955 169.764987,12.555 170.666992,12.555 L171.855992,12.555 C172.757996,12.555 173.208992,13.0059955 173.208992,13.908 L173.208992,18.459 L176.816992,18.459 C177.718996,18.459 178.169992,18.9099955 178.169992,19.812 L178.169992,20.345 C178.169992,21.2470045 177.732663,21.698 176.857992,21.698 L173.208992,21.698 L173.208992,30.923 C173.208992,31.9070049 173.345657,32.6996637 173.618992,33.301 C173.892327,33.9023363 174.227157,34.3669984 174.623492,34.695 C175.019827,35.0230016 175.44349,35.2484994 175.894492,35.3715 C176.345494,35.4945006 176.762323,35.5696665 177.144992,35.597 C177.691661,35.6516669 178.067491,35.7746657 178.272492,35.966 C178.477493,36.1573343 178.579992,36.485331 178.579992,36.95 L178.579992,37.811 C178.579992,38.7130045 178.033331,39.164 176.939992,39.164 C175.90132,39.164 174.91733,39.0136682 173.987992,38.713 C173.058654,38.4123318 172.245495,37.9476698 171.548492,37.319 C170.851489,36.6903302 170.291161,35.8976714 169.867492,34.941 C169.443823,33.9843286 169.231992,32.8500066 169.231992,31.538 L169.231992,21.698 Z" id="path-1"></path>
    </defs>
    <g id="Page-1" stroke="none" stroke-width="1" fill="none" fill-rule="evenodd">
        <g id="mentspot" transform="translate(-3.000000, 0.000000)">
            <g transform="translate(0.000000, 132.000000)">
                <g>
                    <use fill="#000000" xlink:href="#path-1"></use>
                    <use fill="#666666" xlink:href="#path-1"></use>
                </g>
            </g>
            <g id="Group-2" transform="translate(35.000000, 0.000000)" fill="#E3E3E3">
                <path d="M21.973,93.257 C20.3285151,92.9364102 18.8794656,91.973976 17.9462465,90.5824981 C17.0130274,89.1910202 16.6725154,87.4851258 17,85.842 L25.44,43.816 C25.9435936,41.3479534 27.8609009,39.4123712 30.3240592,38.885388 C32.7872176,38.3584048 35.3286557,39.3400558 36.798,41.386 L50.991,61.176 L59.48,38.634 C60.3722733,36.2847608 62.5676853,34.684105 65.0772495,34.553094 C67.5868138,34.422083 69.936961,35.7854394 71.069,38.029 L83.728,63.245 C85.285443,66.3720363 84.0130363,70.169557 80.886,71.727 C77.7589637,73.284443 73.961443,72.0120363 72.404,68.885 L66.235,56.6 L58.674,76.684 C57.84533,78.8669554 55.884181,80.4180019 53.5690337,80.7214496 C51.2538863,81.0248973 48.9592563,80.0316583 47.596,78.136 L34.99,60.557 L29.414,88.312 C28.8160483,91.2612561 26.223262,93.381068 23.214,93.381 C22.8005743,93.3812733 22.3831004,93.340062 21.973,93.257 Z" id="Mark-path"></path>
                <path d="M46.419,13.531 C65.0170141,13.5138114 80.1194572,28.5540732 80.179,47.152 C80.179,65.743 60.415,92.437 46.436,108.426 C32.672,92.592 12.66,65.591 12.66,47.151 C12.719542,28.5534639 27.821376,13.5133632 46.419,13.53 L46.419,13.531 Z M46.419,0.922 C34.1330227,0.896513187 22.3401542,5.75280602 13.6348398,14.4224882 C4.92952546,23.0921704 0.024904686,34.8650215 0,47.151 C0,80.772 46.419,127 46.419,127 C46.419,127 92.839,80.772 92.839,47.151 C92.8135656,34.8651032 87.9086058,23.0925114 79.2031614,14.423074 C70.4977169,5.75363661 58.7048967,0.897512818 46.419,0.923 L46.419,0.922 Z" id="Mark" fill-rule="nonzero"></path>
            </g>
        </g>
    </g>
</svg>