<?xml version="1.0" encoding="UTF-8"?>
<svg width="627px" height="246px" viewBox="0 0 627 246" version="1.1" xmlns="http://www.w3.org/2000/svg" xmlns:xlink="http://www.w3.org/1999/xlink">
    <!-- Generator: Sketch 52.6 (67491) - http://www.bohemiancoding.com/sketch -->
    <title>Group Copy</title>
    <desc>Created with Sketch.</desc>
    <g id="Page-1" stroke="none" stroke-width="1" fill="none" fill-rule="evenodd">
        <g id="Group-Copy">
            <g id="stormly" opacity="0.642075893">
                <g id="Page-1">
                    <g id="Artboard">
                        <g id="waves-copy-6">
                            <path d="M137,242 L184.362319,242 C187.939599,212.642355 190.693222,192.669059 192.623188,182.08011 C194.997001,169.055952 205.798995,147.163182 213,138.536472 C217.647019,132.969403 224.565217,123.259669 241.637681,109.516575 C254.402162,99.2413464 270.189602,89.697539 289,80.8851526 L269.781609,43 C226.375235,63.3731984 193.762208,88.6299668 171.942529,118.770305 C161.048581,133.818522 154.78693,147.563152 148.690733,168.077947 C144.059399,183.663213 140.162488,208.303897 137,242 Z" id="Path-6-Copy-3" fill="#505187"></path>
                            <path d="M68,242 L119.260726,242 C122.136109,198.345749 126.590701,169.452979 132.624502,155.321689 C139.640987,138.888935 146.498046,124.227571 163.834532,103.336538 C175.39219,89.4091835 194.780679,71.8393597 222,50.627067 L193.051744,14 C143.763578,50.3349973 110.757609,83.748265 94.033837,114.239803 C77.310065,144.731341 68.6321194,187.318073 68,242 Z" id="Path-11" fill="#0E0F41"></path>
                            <path d="M0,241 L51.0607842,241 C50.584659,190.424449 59.0988609,148.717032 76.6033897,115.87775 C94.1079185,83.0384673 116.240122,56.1115189 143,35.0969049 L112.417378,0 C81.4724592,26.7777778 61.7833333,45.8523592 53.35,57.2237443 C42.7483227,71.5188931 38.2753884,76.9351438 31.35,90.7876712 C15.70058,122.090467 5.25058,172.161243 0,241 Z" id="Path-11-Copy" fill="#0E0F41"></path>
                        </g>
                    </g>
                </g>
            </g>
            <path d="M260.227539,200.744141 L260.331055,200.433594 L272.442383,200.433594 C272.442383,204.953799 274.003728,208.361154 277.126465,210.655762 C280.249202,212.95037 284.053363,214.097656 288.539062,214.097656 C292.990257,214.097656 296.449369,213.157399 298.916504,211.276855 C301.383639,209.396312 302.617188,206.851579 302.617188,203.642578 C302.617188,200.502588 301.504406,197.931976 299.278809,195.930664 C297.053212,193.929352 293.111031,192.135099 287.452148,190.547852 C279.343384,188.305002 273.089377,185.363462 268.689941,181.723145 C264.290505,178.082827 262.09082,173.329782 262.09082,167.463867 C262.09082,161.39092 264.506161,156.387715 269.336914,152.454102 C274.167667,148.520488 280.378543,146.553711 287.969727,146.553711 C296.078491,146.588216 302.582658,148.779275 307.482422,153.126953 C312.209659,157.33661 314.573242,162.495087 314.573242,168.602539 L314.573242,169.275391 L314.469727,169.585938 L302.358398,169.585938 C302.358398,165.617819 301.038587,162.460624 298.398926,160.114258 C295.759264,157.767892 292.248394,156.594727 287.866211,156.594727 C283.622049,156.594727 280.352713,157.595368 278.058105,159.59668 C275.763498,161.597992 274.616211,164.185857 274.616211,167.360352 C274.616211,170.258804 275.875638,172.648265 278.394531,174.528809 C280.913424,176.409352 285.088513,178.194979 290.919922,179.885742 C298.821654,182.094087 304.842753,185.104636 308.983398,188.91748 C313.124044,192.730325 315.194336,197.604137 315.194336,203.539062 C315.194336,209.784536 312.744491,214.770489 307.844727,218.49707 C302.944962,222.223651 296.509805,224.086914 288.539062,224.086914 C280.878868,224.086914 274.202177,222.051127 268.508789,217.979492 C262.987928,214.011373 260.227539,208.490595 260.227539,201.416992 L260.227539,200.744141 Z M321.819336,176.314453 L321.819336,166.998047 L330.359375,166.998047 L330.359375,153.385742 L342.884766,153.385742 L342.884766,166.998047 L352.925781,166.998047 L352.925781,176.314453 L342.884766,176.314453 L342.884766,207.265625 C342.884766,209.577486 343.385086,211.225093 344.385742,212.208496 C345.386398,213.191899 346.714835,213.683594 348.371094,213.683594 C349.061201,213.683594 349.734046,213.62321 350.389648,213.502441 C351.045251,213.381673 351.666338,213.217774 352.25293,213.010742 L353.598633,222.223633 C352.528966,222.810224 351.260912,223.267414 349.794434,223.595215 C348.327955,223.923016 346.801115,224.086914 345.213867,224.086914 C340.590146,224.086914 336.958509,222.732598 334.318848,220.023926 C331.679186,217.315253 330.359375,213.062529 330.359375,207.265625 L330.359375,176.314453 L321.819336,176.314453 Z M360.741211,195.568359 L360.741211,194.481445 C360.741211,186.131143 363.027158,179.290554 367.599121,173.959473 C372.171084,168.628391 378.425091,165.962891 386.361328,165.962891 C394.401082,165.962891 400.706846,168.628391 405.278809,173.959473 C409.850772,179.290554 412.136719,186.131143 412.136719,194.481445 L412.136719,195.568359 C412.136719,203.987672 409.850772,210.845514 405.278809,216.14209 C400.706846,221.438666 394.435587,224.086914 386.464844,224.086914 C378.459595,224.086914 372.171084,221.43004 367.599121,216.116211 C363.027158,210.802382 360.741211,203.953167 360.741211,195.568359 Z M373.318359,195.568359 C373.318359,201.054715 374.38801,205.505842 376.527344,208.921875 C378.666677,212.337908 381.979144,214.045898 386.464844,214.045898 C390.847027,214.045898 394.133615,212.329281 396.324707,208.895996 C398.515799,205.462711 399.611328,201.02021 399.611328,195.568359 L399.611328,194.481445 C399.611328,189.133111 398.515799,184.725115 396.324707,181.257324 C394.133615,177.789533 390.812522,176.055664 386.361328,176.055664 C381.979145,176.055664 378.709809,177.789533 376.553223,181.257324 C374.396636,184.725115 373.318359,189.133111 373.318359,194.481445 L373.318359,195.568359 Z M423.109375,223 L423.109375,166.998047 L434.599609,166.998047 L435.427734,175.124023 C436.842455,172.260077 438.662587,170.017261 440.888184,168.395508 C443.113781,166.773755 445.675767,165.962891 448.574219,165.962891 C449.333337,165.962891 450.040687,166.023274 450.696289,166.144043 C451.351891,166.264812 451.955726,166.411457 452.507812,166.583984 L451.006836,178.333008 L445.624023,178.125977 C443.174141,178.125977 441.129728,178.64355 439.490723,179.678711 C437.851717,180.713872 436.583663,182.180329 435.686523,184.078125 L435.686523,223 L423.109375,223 Z M460.323242,223 L460.323242,166.998047 L471.813477,166.998047 L472.486328,174.295898 C474.315113,171.638984 476.609687,169.585945 479.370117,168.136719 C482.130548,166.687493 485.322248,165.962891 488.945312,165.962891 C492.602883,165.962891 495.742825,166.791007 498.365234,168.447266 C500.987643,170.103524 502.954421,172.587874 504.265625,175.900391 C505.990894,172.794906 508.268215,170.362313 511.097656,168.602539 C513.927097,166.842765 517.239564,165.962891 521.035156,165.962891 C526.659533,165.962891 531.102034,167.921042 534.362793,171.837402 C537.623551,175.753763 539.253906,181.679973 539.253906,189.616211 L539.253906,223 L526.676758,223 L526.676758,189.564453 C526.676758,184.664689 525.857267,181.222829 524.218262,179.23877 C522.579256,177.25471 520.120785,176.262695 516.842773,176.262695 C514.151354,176.262695 511.874033,176.987297 510.010742,178.436523 C508.147452,179.885749 506.801762,181.835274 505.973633,184.285156 C505.973633,184.802737 505.990885,185.2513 506.025391,185.630859 C506.059896,186.010419 506.077148,186.37272 506.077148,186.717773 L506.077148,223 L493.5,223 L493.5,189.564453 C493.5,184.837216 492.663257,181.438487 490.989746,179.368164 C489.316235,177.297841 486.857764,176.262695 483.614258,176.262695 C481.06086,176.262695 478.895679,176.75439 477.118652,177.737793 C475.341625,178.721196 473.935552,180.110017 472.900391,181.904297 L472.900391,223 L460.323242,223 Z M553.332031,223 L553.332031,142.257812 L565.90918,142.257812 L565.90918,223 L553.332031,223 Z M574.19043,166.998047 L587.90625,166.998047 L598.568359,200.537109 L599.810547,206.126953 L600.121094,206.126953 L612.387695,166.998047 L626.155273,166.998047 L602.967773,231.488281 C601.484042,235.387389 599.396498,238.717109 596.705078,241.477539 C594.013658,244.23797 590.200871,245.618164 585.266602,245.618164 C584.23144,245.618164 583.118658,245.514649 581.928223,245.307617 C580.737787,245.100585 579.5905,244.859051 578.486328,244.583008 L579.883789,234.852539 C580.332359,234.887044 580.970699,234.938802 581.798828,235.007812 C582.626957,235.076823 583.248045,235.111328 583.662109,235.111328 C585.939465,235.111328 587.759596,234.334969 589.122559,232.782227 C590.485521,231.229484 591.598303,229.435232 592.460938,227.399414 L594.53125,222.327148 L574.19043,166.998047 Z" id="Stormly" fill="#515151"></path>
        </g>
    </g>
</svg>