<?xml version="1.0" encoding="UTF-8"?>
<svg width="154px" height="91px" viewBox="0 0 154 91" version="1.1" xmlns="http://www.w3.org/2000/svg" xmlns:xlink="http://www.w3.org/1999/xlink">
    <!-- Generator: Sketch 52.6 (67491) - http://www.bohemiancoding.com/sketch -->
    <title>Group</title>
    <desc>Created with Sketch.</desc>
    <g id="Page-1" stroke="none" stroke-width="1" fill="none" fill-rule="evenodd">
        <g id="Group">
            <rect id="Rectangle" fill="#FFFFFF" x="0" y="0" width="154" height="91"></rect>
            <path d="M42.2587891,47.1801758 L49.2456055,47.1801758 L39.3759766,65.5981445 L39.3759766,76.6889648 L33.2099609,76.6889648 L33.2099609,65.5981445 L23,47.1801758 L30.2670898,47.1801758 L36.3930664,60.0327148 L42.2587891,47.1801758 Z M57.0251958,72.6650391 C58.6934984,72.6650391 59.9747356,72.0711322 60.8689458,70.8833008 C61.763156,69.6954693 62.2102544,68.0071724 62.2102544,65.8183594 C62.2102544,63.6295463 61.763156,61.944586 60.8689458,60.7634277 C59.9747356,59.5822695 58.6934984,58.9916992 57.0251958,58.9916992 C55.3568932,58.9916992 54.0723195,59.5822695 53.1714361,60.7634277 C52.2705527,61.944586 51.8201177,63.6295463 51.8201177,65.8183594 C51.8201177,68.0071724 52.2705527,69.6954693 53.1714361,70.8833008 C54.0723195,72.0711322 55.3568932,72.6650391 57.0251958,72.6650391 Z M68.1960943,65.8183594 C68.1960943,69.0215004 67.275205,71.7608122 65.433399,74.036377 C63.5915929,76.3119417 60.7955596,77.449707 57.0452154,77.449707 C53.2948711,77.449707 50.4988379,76.3119417 48.6570318,74.036377 C46.8152257,71.7608122 45.8943365,69.0215004 45.8943365,65.8183594 C45.8943365,62.668604 46.8152257,59.9393019 48.6570318,57.6303711 C50.4988379,55.3214403 53.2948711,54.1669922 57.0452154,54.1669922 C60.7955596,54.1669922 63.5915929,55.3214403 65.433399,57.6303711 C67.275205,59.9393019 68.1960943,62.668604 68.1960943,65.8183594 Z M79.5992198,72.0043945 C80.9338619,72.0043945 82.0616175,71.5005747 82.9825206,70.4929199 C83.9034236,69.4852651 84.3638682,67.8803821 84.3638682,65.6782227 C84.3638682,63.6095274 83.9267795,62.0346734 83.0525889,60.9536133 C82.1783984,59.8725532 81.0072675,59.3320312 79.5391612,59.3320312 C77.5371981,59.3320312 76.1558642,60.2729398 75.3951182,62.1547852 C74.9947256,63.1557667 74.7945323,64.3902921 74.7945323,65.8583984 C74.7945323,67.1263084 75.0080718,68.2540641 75.4351573,69.2416992 C76.2092497,71.0835053 77.5972567,72.0043945 79.5992198,72.0043945 Z M78.1778331,54.347168 C79.2722396,54.347168 80.2264944,54.5139957 81.040626,54.8476562 C82.4286538,55.4215523 83.5497364,56.4759038 84.4039073,58.0107422 L84.4039073,54.8676758 L89.9493175,54.8676758 L89.9493175,75.5678711 C89.9493175,78.3839659 89.4755266,80.506015 88.5279307,81.934082 C86.8996674,84.3898235 83.7766517,85.6176758 79.1587901,85.6176758 C76.3693881,85.6176758 74.0938575,85.0704807 72.33213,83.9760742 C70.5704024,82.8816677 69.5961283,81.2467557 69.4092784,79.0712891 L75.6153331,79.0712891 C75.7754901,79.7386101 76.0357414,80.2190741 76.3960948,80.5126953 C77.0100302,81.0332057 78.0443623,81.293457 79.4991221,81.293457 C81.554471,81.293457 82.9291317,80.6061267 83.6231456,79.2314453 C84.0769239,78.3505815 84.3038096,76.869151 84.3038096,74.7871094 L84.3038096,73.3857422 C83.7566064,74.3199917 83.1693727,75.0206682 82.5420909,75.487793 C81.4076451,76.3553103 79.9328877,76.7890625 78.1177745,76.7890625 C75.3150261,76.7890625 73.0761976,75.8047787 71.4012218,73.8361816 C69.7262459,71.8675846 68.8887706,69.201677 68.8887706,65.8383789 C68.8887706,62.5951986 69.6962169,59.869233 71.3111339,57.6604004 C72.9260508,55.4515677 75.2149276,54.347168 78.1778331,54.347168 Z M99.0902359,52.2651367 L93.3045914,52.2651367 L93.3045914,47 L99.0902359,47 L99.0902359,52.2651367 Z M93.3045914,54.8676758 L99.0902359,54.8676758 L99.0902359,76.6889648 L93.3045914,76.6889648 L93.3045914,54.8676758 Z M108.391311,76.6889648 L102.685744,76.6889648 L102.685744,47.1801758 L108.391311,47.1801758 L108.391311,76.6889648 Z M120.515139,58.9916992 C119.193844,58.9916992 118.169521,59.4054321 117.442141,60.2329102 C116.714761,61.0603883 116.257653,62.1814708 116.070803,63.5961914 L124.939456,63.5961914 C124.846031,62.0880458 124.388923,60.9436074 123.568118,60.1628418 C122.747313,59.3820762 121.729664,58.9916992 120.515139,58.9916992 Z M120.515139,54.2871094 C122.330253,54.2871094 123.965165,54.627438 125.419924,55.3081055 C126.874684,55.9887729 128.075844,57.0631437 129.02344,58.53125 C129.877611,59.8258528 130.431479,61.3273027 130.685061,63.0356445 C130.831872,64.0366261 130.89193,65.4780179 130.865237,67.3598633 L115.930667,67.3598633 C116.010745,69.5486763 116.698076,71.0834917 117.992678,71.9643555 C118.780117,72.5115587 119.727699,72.7851562 120.835452,72.7851562 C122.009937,72.7851562 122.964192,72.4515007 123.698245,71.7841797 C124.098637,71.4238263 124.452312,70.923343 124.75928,70.2827148 L130.584964,70.2827148 C130.438153,71.5773177 129.764169,72.8919204 128.562991,74.2265625 C126.694492,76.3486434 124.078633,77.409668 120.715335,77.409668 C117.939279,77.409668 115.490248,76.5154712 113.368167,74.7270508 C111.246086,72.9386304 110.185061,70.0291543 110.185061,65.9985352 C110.185061,62.221498 111.142653,59.3253681 113.057864,57.3100586 C114.973075,55.294749 117.458809,54.2871094 120.515139,54.2871094 Z" id="Yogile" fill="#666666"></path>
        </g>
    </g>
</svg>